<svg width="32" height="33" viewBox="0 0 32 33" fill="none" xmlns="http://www.w3.org/2000/svg">
<path d="M9.94702 26.6715H7.38696C3.46696 26.3915 1.70703 23.3782 1.70703 20.6982C1.70703 18.0182 3.46698 14.9915 7.32031 14.7249C7.86698 14.6715 8.34696 15.0982 8.38696 15.6582C8.42696 16.2049 8.01369 16.6849 7.45369 16.7249C4.86703 16.9115 3.70703 18.8582 3.70703 20.7115C3.70703 22.5649 4.86703 24.5115 7.45369 24.6982H9.94702C10.4937 24.6982 10.947 25.1515 10.947 25.6982C10.947 26.2449 10.4937 26.6715 9.94702 26.6715Z" fill="#292D32"/>
<path d="M22.2265 26.6715C22.1998 26.6715 22.1865 26.6715 22.1599 26.6715C21.6132 26.6715 21.1066 26.2181 21.1066 25.6715C21.1066 25.0981 21.5332 24.6715 22.0932 24.6715C23.7332 24.6715 25.1999 24.0982 26.3465 23.0715C28.4265 21.2582 28.5599 18.6448 27.9999 16.8048C27.4399 14.9782 25.8799 12.8848 23.1599 12.5515C22.7199 12.4982 22.3732 12.1648 22.2932 11.7248C21.7598 8.52483 20.0399 6.31149 17.4265 5.51149C14.7332 4.67149 11.5865 5.49815 9.62649 7.55149C7.71983 9.53815 7.27984 12.3248 8.3865 15.3915C8.57317 15.9115 8.30657 16.4848 7.78657 16.6715C7.26657 16.8581 6.69321 16.5915 6.50654 16.0715C5.15987 12.3115 5.77322 8.71149 8.18655 6.17815C10.6532 3.59149 14.6132 2.56481 18.0132 3.60481C21.1332 4.56481 23.3332 7.13815 24.1332 10.7115C26.8532 11.3248 29.0399 13.3915 29.9065 16.2448C30.8532 19.3515 29.9999 22.5515 27.6665 24.5782C26.1865 25.9115 24.2532 26.6715 22.2265 26.6715Z" fill="#292D32"/>
<path d="M16 30.5915C13.32 30.5915 10.8133 29.1649 9.44 26.8582C9.29334 26.6315 9.14667 26.3649 9.02667 26.0715C8.57334 25.1249 8.33331 24.0449 8.33331 22.9249C8.33331 18.6982 11.7733 15.2582 16 15.2582C20.2266 15.2582 23.6666 18.6982 23.6666 22.9249C23.6666 24.0582 23.4267 25.1249 22.9467 26.1115C22.84 26.3649 22.6933 26.6315 22.5333 26.8849C21.1867 29.1649 18.68 30.5915 16 30.5915ZM16 17.2582C12.88 17.2582 10.3333 19.8049 10.3333 22.9249C10.3333 23.7515 10.5067 24.5249 10.84 25.2315C10.9467 25.4582 11.04 25.6449 11.1466 25.8182C12.16 27.5382 14.0133 28.5915 15.9866 28.5915C17.96 28.5915 19.8133 27.5382 20.8133 25.8449C20.9333 25.6449 21.04 25.4582 21.12 25.2715C21.48 24.5382 21.6533 23.7649 21.6533 22.9382C21.6666 19.8049 19.12 17.2582 16 17.2582Z" fill="#292D32"/>
<path d="M15.2398 25.2448C14.9865 25.2448 14.7332 25.1514 14.5332 24.9514L13.2132 23.6314C12.8265 23.2448 12.8265 22.6048 13.2132 22.2181C13.5998 21.8314 14.2398 21.8314 14.6265 22.2181L15.2665 22.8581L17.3998 20.8848C17.8132 20.5114 18.4398 20.5381 18.8132 20.9381C19.1865 21.3381 19.1599 21.9781 18.7599 22.3515L15.9199 24.9781C15.7199 25.1515 15.4799 25.2448 15.2398 25.2448Z" fill="#292D32"/>
</svg>
